<svg width="27" height="26" viewBox="0 0 27 26" fill="none" xmlns="http://www.w3.org/2000/svg">
<path d="M12.0943 0.953177C12.5526 -0.135435 14.1136 -0.135434 14.5719 0.95318L17.2769 7.37836C17.4703 7.8373 17.9072 8.15087 18.4086 8.19059L25.43 8.74669C26.6196 8.84091 27.102 10.3076 26.1956 11.0746L20.8461 15.6016C20.4641 15.925 20.2971 16.4324 20.4138 16.9158L22.0482 23.6847C22.3251 24.8315 21.0623 25.7381 20.0438 25.1235L14.0325 21.4961C13.6031 21.237 13.0631 21.237 12.6337 21.4961L6.62241 25.1235C5.6039 25.7381 4.34103 24.8315 4.61793 23.6847L6.25232 16.9158C6.36906 16.4324 6.20219 15.925 5.8201 15.6016L0.470505 11.0746C-0.435868 10.3076 0.046513 8.84091 1.23614 8.74669L8.25756 8.19059C8.75909 8.15087 9.19596 7.8373 9.38918 7.37836L12.0943 0.953177Z" fill="#006B6A"/>
</svg>
